<?xml version="1.0" encoding="utf-8"?>
<!-- Generator: Adobe Illustrator 24.0.1, SVG Export Plug-In . SVG Version: 6.00 Build 0)  -->
<svg version="1.1" xmlns="http://www.w3.org/2000/svg" xmlns:xlink="http://www.w3.org/1999/xlink" x="0px" y="0px"
	 viewBox="0 0 47.92 47.17" style="enable-background:new 0 0 47.92 47.17;" xml:space="preserve">
<style type="text/css">
	.st0{display:none;}
	.st1{display:inline;}
	.st2{fill:url(#SVGID_1_);}
	.st3{fill:url(#SVGID_2_);}
	.st4{fill:url(#SVGID_3_);}
	.st5{fill:url(#SVGID_4_);}
	.st6{fill:url(#SVGID_5_);}
	.st7{fill:url(#SVGID_6_);}
	.st8{fill:#FFFFFF;}
	.st9{fill:url(#SVGID_7_);}
</style>
<g id="Laag_1" class="st0">
	<g class="st1">
		<linearGradient id="SVGID_1_" gradientUnits="userSpaceOnUse" x1="7.6829" y1="23.5833" x2="29.3988" y2="23.5833">
			<stop  offset="0.4176" style="stop-color:#F49807"/>
			<stop  offset="1" style="stop-color:#EE7116"/>
		</linearGradient>
		<path class="st2" d="M18.06,17c-0.36,0-0.71,0-1.06,0C16.35,17,15.69,17,15.04,17c-1.1,0-2.21,0-3.31,0.01
			c-0.67,0-1.23,0.52-1.29,1.16c-0.07,0.69,0.36,1.31,1.03,1.43c0.3,0.05,0.61,0.04,0.91,0.04c1.58,0,3.16,0,4.74-0.01
			c0.3,0,0.61,0,0.92,0c0,0.89,0,1.75,0,2.64c-0.09,0-0.16,0-0.24,0c-2.02,0-4.03,0-6.05,0c-0.94,0-1.57,0.93-1.24,1.8
			c0.19,0.49,0.68,0.82,1.24,0.82c1.02,0,2.05,0,3.07,0c1.02,0,2.04,0,3.05,0c0.1,0,0.19-0.01,0.2,0.14
			c0.05,0.81,0.18,1.61,0.43,2.39c0.01,0.02,0.01,0.05,0.01,0.09c-0.06,0.01-0.12,0.02-0.18,0.02c-1.15,0-2.3,0-3.45,0
			c-1.04,0-2.09-0.01-3.13-0.01c-0.57,0-0.99,0.28-1.22,0.8c-0.23,0.51-0.14,1,0.24,1.41c0.26,0.28,0.58,0.43,0.97,0.43
			c1.09,0,2.18,0,3.27,0c1.52,0,3.04,0,4.56,0c0.12,0,0.2,0.02,0.28,0.13c0.68,1.02,1.52,1.89,2.5,2.63
			c1.24,0.93,2.49,1.85,3.75,2.77c0.85,0.62,1.72,1.22,2.59,1.83c0.17,0.12,0.35,0.22,0.53,0.31c0.11,0.05,0.13,0.1,0.09,0.21
			c-0.12,0.36-0.49,0.66-0.88,0.66c-1.39,0-2.78,0-4.16,0c-1.19,0-2.38,0-3.57,0c-3.15,0-6.31,0-9.46,0c-0.86,0-1.72,0-2.58,0
			c-0.6,0-1-0.41-1-1.01c0-2.16-0.01-4.32-0.01-6.48c0-1.88,0.01-3.75,0.01-5.63c0-1.04-0.01-2.07-0.01-3.11
			c0-2.13,0.01-4.26,0.01-6.38c0-1.82,0-3.65,0-5.47c0-0.37-0.01-0.74-0.01-1.11C7.7,8.87,8.09,8.48,8.71,8.48c1.23,0,2.46,0,3.69,0
			c1.58,0,3.16,0,4.74,0c2.58,0,5.17,0,7.75,0c1.17,0,2.34,0,3.51,0.01c0.59,0,0.97,0.42,1,1.01c0.02,0.33-0.11,0.45-0.38,0.59
			c-1.29,0.7-2.55,1.44-3.83,2.17c-2.09,1.18-4.17,2.36-6.26,3.54C18.45,16.05,18.15,16.44,18.06,17z M15.97,14.37
			C15.97,14.37,15.97,14.37,15.97,14.37c1.41,0.01,2.81,0.01,4.22,0.01c0.75,0,1.35-0.57,1.35-1.3c0.01-0.74-0.57-1.34-1.32-1.35
			c-0.94-0.01-1.88,0-2.81,0c-1.29,0-2.59,0-3.88,0c-0.59,0-1.19-0.01-1.78,0.01c-0.77,0.02-1.33,0.62-1.31,1.36
			c0.02,0.73,0.6,1.27,1.37,1.27C13.19,14.37,14.58,14.37,15.97,14.37z M15.75,32.8c-0.07,0-0.13,0-0.2,0c-1.26,0-2.51-0.01-3.77,0
			c-0.75,0-1.35,0.61-1.35,1.34c0,0.73,0.6,1.3,1.37,1.3c1.33,0,2.66,0,3.98,0c1.31,0,2.62,0.01,3.92,0c0.37,0,0.71-0.11,0.97-0.37
			c0.42-0.41,0.52-0.94,0.3-1.45c-0.24-0.54-0.67-0.81-1.25-0.82c-0.75-0.01-1.49,0-2.24,0C16.91,32.8,16.33,32.8,15.75,32.8z"/>
		<linearGradient id="SVGID_2_" gradientUnits="userSpaceOnUse" x1="22.5179" y1="23.8886" x2="40.2394" y2="23.8886">
			<stop  offset="0" style="stop-color:#ED6D09"/>
			<stop  offset="1" style="stop-color:#E41E17"/>
		</linearGradient>
		<path class="st3" d="M40.22,21.49c0,1.05,0.04,2.1-0.01,3.14c-0.1,2.17-0.95,4.02-2.56,5.48c-0.69,0.63-1.45,1.18-2.21,1.73
			c-1.31,0.95-2.63,1.88-3.94,2.82c-0.1,0.07-0.17,0.07-0.27,0c-1.56-1.12-3.13-2.23-4.68-3.37c-0.74-0.54-1.49-1.09-2.1-1.8
			c-1.11-1.3-1.77-2.79-1.9-4.5c-0.04-0.49-0.04-0.99-0.04-1.49c0-1.77,0-3.54-0.01-5.31c0-0.11,0.04-0.17,0.13-0.22
			c1.61-0.91,3.22-1.83,4.84-2.74c1.25-0.71,2.51-1.42,3.76-2.13c0.1-0.06,0.16-0.05,0.26,0c1.22,0.7,2.44,1.39,3.66,2.08
			c1.47,0.84,2.95,1.67,4.42,2.51c0.17,0.09,0.33,0.19,0.5,0.28c0.1,0.05,0.14,0.11,0.14,0.23C40.22,19.3,40.23,20.39,40.22,21.49
			C40.22,21.49,40.22,21.49,40.22,21.49z M31.42,31.46c4.44-0.08,7.6-3.69,7.51-7.71c-0.09-4.29-3.67-7.57-7.82-7.41
			c-4.23,0.16-7.5,3.69-7.3,7.9C24.02,28.42,27.44,31.46,31.42,31.46z"/>
		<linearGradient id="SVGID_3_" gradientUnits="userSpaceOnUse" x1="25.9954" y1="24.2954" x2="36.736" y2="24.2954">
			<stop  offset="0" style="stop-color:#ED6D09"/>
			<stop  offset="1" style="stop-color:#E41E17"/>
		</linearGradient>
		<path class="st4" d="M29.97,24.83c0.69-0.69,1.36-1.36,2.03-2.03c0.84-0.84,1.68-1.68,2.52-2.52c0.32-0.31,0.79-0.29,1.1,0.02
			c0.28,0.28,0.55,0.57,0.84,0.83c0.36,0.33,0.35,0.87,0,1.21c-1.05,1.03-2.08,2.07-3.12,3.11c-0.94,0.94-1.87,1.87-2.81,2.81
			c-0.35,0.35-0.8,0.36-1.15,0.01c-0.95-0.94-1.89-1.89-2.83-2.83c-0.11-0.11-0.22-0.21-0.32-0.32c-0.32-0.33-0.32-0.79,0.01-1.12
			c0.28-0.28,0.56-0.56,0.83-0.84c0.41-0.4,0.83-0.4,1.24,0.01c0.5,0.51,1.01,1.02,1.51,1.52C29.87,24.75,29.91,24.78,29.97,24.83z"
			/>
	</g>
</g>
<g id="Laag_2" class="st0">
	<g class="st1">
		<linearGradient id="SVGID_4_" gradientUnits="userSpaceOnUse" x1="8.5692" y1="23.6697" x2="24.9698" y2="23.6697">
			<stop  offset="0.4176" style="stop-color:#F49807"/>
			<stop  offset="1" style="stop-color:#EE7116"/>
		</linearGradient>
		<path class="st5" d="M12.11,22.32c0.27,0.47,0.78,0.77,1.33,0.77h6.66c0.55,0,1.06-0.29,1.33-0.77l3.33-5.77
			c0.27-0.48,0.27-1.06,0-1.54l-3.33-5.77c-0.27-0.47-0.78-0.77-1.33-0.77h-6.66c-0.55,0-1.06,0.29-1.33,0.77l-3.33,5.77
			c-0.27,0.48-0.27,1.06,0,1.54L12.11,22.32z M14.33,11.54h4.89l2.44,4.23l-2.44,4.23h-4.89l-2.44-4.23L14.33,11.54z M21.43,25.02
			c-0.27-0.47-0.78-0.77-1.33-0.77h-6.66c-0.55,0-1.06,0.29-1.33,0.77l-3.33,5.77c-0.27,0.47-0.27,1.06,0,1.54l3.33,5.77
			c0.27,0.47,0.78,0.77,1.33,0.77h6.66c0.55,0,1.06-0.29,1.33-0.77l3.33-5.77c0.27-0.47,0.27-1.06,0-1.54L21.43,25.02z M19.22,35.8
			h-4.89l-2.44-4.23l2.44-4.23h4.89l2.44,4.23L19.22,35.8z"/>
	</g>
	<g class="st1">
		<linearGradient id="SVGID_5_" gradientUnits="userSpaceOnUse" x1="23.9611" y1="23.8739" x2="36.3888" y2="23.8739">
			<stop  offset="0" style="stop-color:#E41E17"/>
			<stop  offset="1" style="stop-color:#ED6D09"/>
		</linearGradient>
		<path class="st6" d="M36.23,24.46l-2.52,4.37c-0.21,0.36-0.59,0.58-1.01,0.58h-5.05c-0.42,0-0.8-0.22-1.01-0.58l-2.52-4.37
			c-0.21-0.36-0.21-0.8,0-1.16l2.52-4.37c0.21-0.36,0.59-0.58,1.01-0.58h5.05c0.42,0,0.8,0.22,1.01,0.58l2.52,4.37
			C36.44,23.65,36.44,24.1,36.23,24.46z"/>
	</g>
</g>
<g id="Laag_3">
	<g>
		<linearGradient id="SVGID_6_" gradientUnits="userSpaceOnUse" x1="7.6649" y1="22.9606" x2="39.2007" y2="22.9606">
			<stop  offset="0.4176" style="stop-color:#F49807"/>
			<stop  offset="1" style="stop-color:#EE7116"/>
		</linearGradient>
		<path class="st7" d="M39.2,19.53c0,4.4,0,8.8,0,13.21c-0.01,0.06-0.02,0.13-0.03,0.19c-0.05,0.33-0.07,0.66-0.16,0.98
			c-0.54,2.03-2.41,3.5-4.63,3.5c-7.31-0.01-14.62,0-21.93-0.01c-0.29,0-0.59-0.02-0.88-0.07C9.34,36.96,7.67,35,7.67,32.72
			c0-4.41,0-8.83,0-13.24c0-0.56,0.11-1.1,0.31-1.62c0.73-1.86,2.45-3.03,4.44-3.03c2.47,0,4.94,0,7.41,0c0.06,0,0.12,0,0.18,0
			c0.01-0.02,0.01-0.03,0.02-0.05c-0.06-0.05-0.13-0.1-0.19-0.16c-1.1-1.09-2.19-2.18-3.28-3.27c-0.42-0.42-0.58-0.92-0.48-1.51
			c0.14-0.82,0.97-1.43,1.8-1.33c0.41,0.05,0.75,0.22,1.04,0.51c1.44,1.44,2.89,2.87,4.33,4.31c0.19,0.19,0.37,0.38,0.56,0.58
			c0.06-0.05,0.09-0.08,0.13-0.12c0.43-0.43,0.86-0.86,1.29-1.28c1.18-1.17,2.35-2.34,3.53-3.51c0.76-0.75,1.97-0.64,2.56,0.22
			c0.45,0.67,0.37,1.53-0.21,2.12c-1.12,1.12-2.24,2.23-3.36,3.35c-0.04,0.04-0.07,0.08-0.13,0.14c0.09,0,0.15,0,0.21,0
			c2.2,0,4.39,0,6.59,0c0.28,0,0.56,0.02,0.83,0.06c1.87,0.29,3.43,1.76,3.83,3.61C39.13,18.85,39.16,19.19,39.2,19.53z M23.42,34.1
			c3.64,0,7.28,0,10.92,0c0.14,0,0.28,0,0.41-0.03c0.7-0.16,1.12-0.71,1.13-1.45c0-4.33,0-8.65,0-12.98c0-0.22-0.04-0.47-0.13-0.67
			c-0.27-0.57-0.74-0.83-1.37-0.82c-7.29,0-14.59,0-21.88,0c-0.04,0-0.09,0-0.13,0c-0.75,0.01-1.37,0.63-1.37,1.38
			c0,4.4,0,8.79,0,13.19c0,0.15,0.04,0.32,0.09,0.46c0.15,0.45,0.63,0.93,1.41,0.92C16.12,34.09,19.77,34.1,23.42,34.1z"/>
		<path class="st8" d="M39.2,19.53c-0.04-0.34-0.07-0.69-0.14-1.02c-0.4-1.85-1.96-3.32-3.83-3.61c-0.27-0.04-0.55-0.06-0.83-0.06
			c-2.2-0.01-4.39,0-6.59,0c-0.06,0-0.12,0-0.21,0c0.06-0.06,0.09-0.1,0.13-0.14c1.12-1.12,2.25-2.23,3.36-3.35
			c0.58-0.58,0.67-1.45,0.21-2.12c-0.59-0.87-1.8-0.97-2.56-0.22c-1.18,1.17-2.35,2.34-3.53,3.51c-0.43,0.43-0.86,0.86-1.29,1.28
			c-0.03,0.03-0.07,0.07-0.13,0.12c-0.19-0.2-0.37-0.39-0.56-0.58c-1.44-1.44-2.89-2.87-4.33-4.31c-0.29-0.29-0.63-0.46-1.04-0.51
			c-0.83-0.1-1.66,0.51-1.8,1.33c-0.1,0.59,0.06,1.09,0.48,1.51c1.09,1.09,2.19,2.18,3.28,3.27c0.06,0.06,0.13,0.11,0.19,0.16
			c-0.01,0.02-0.01,0.03-0.02,0.05c-0.06,0-0.12,0-0.18,0c-2.47,0-4.94,0-7.41,0c-1.99,0-3.71,1.18-4.44,3.03
			c-0.2,0.52-0.31,1.06-0.31,1.62c0,4.41,0,8.83,0,13.24c0,2.28,1.67,4.24,3.92,4.61c0.29,0.05,0.59,0.07,0.88,0.07
			c7.31,0,14.62,0,21.93,0.01c2.22,0,4.09-1.47,4.63-3.5c0.08-0.32,0.11-0.66,0.16-0.98c0.01-0.06,0.02-0.13,0.03-0.19
			c0,1.58,0,3.15,0,4.73c-10.53,0-21.06,0-31.6,0c0-9.66,0-19.33,0-29c10.53,0,21.06,0,31.6,0C39.2,12.15,39.2,15.84,39.2,19.53z"/>
		<linearGradient id="SVGID_7_" gradientUnits="userSpaceOnUse" x1="16.7312" y1="26.1921" x2="30.007" y2="26.1921">
			<stop  offset="0" style="stop-color:#E41E17"/>
			<stop  offset="1" style="stop-color:#ED6D09"/>
		</linearGradient>
		<path class="st9" d="M23.36,30.04c-1.94,0-3.89-0.01-5.83,0.01c-0.48,0-0.8-0.36-0.8-0.8c0.01-2.04,0.01-4.07,0.01-6.11
			c0-0.49,0.3-0.79,0.79-0.79c3.9,0,7.79,0,11.69,0c0.5,0,0.8,0.36,0.79,0.79c-0.01,2.05,0,4.1-0.01,6.15c0,0.38-0.2,0.66-0.55,0.74
			c-0.08,0.02-0.16,0.02-0.24,0.02C27.26,30.04,25.31,30.04,23.36,30.04z M27.25,28c0-1.21,0-2.4,0-3.6c-2.59,0-5.18,0-7.76,0
			c0,1.2,0,2.4,0,3.6C22.08,28,24.67,28,27.25,28z"/>
	</g>
</g>
</svg>
