<?xml version="1.0" encoding="utf-8"?>
<!-- Generator: Adobe Illustrator 24.0.1, SVG Export Plug-In . SVG Version: 6.00 Build 0)  -->
<svg version="1.1" id="Laag_1" xmlns="http://www.w3.org/2000/svg" xmlns:xlink="http://www.w3.org/1999/xlink" x="0px" y="0px"
	 viewBox="0 0 47.92 47.17" style="enable-background:new 0 0 47.92 47.17;" xml:space="preserve">
<style type="text/css">
	.st0{fill:url(#SVGID_1_);}
	.st1{fill:url(#SVGID_2_);}
	.st2{fill:url(#SVGID_3_);}
</style>
<g>
	<linearGradient id="SVGID_1_" gradientUnits="userSpaceOnUse" x1="7.6829" y1="23.5833" x2="29.3988" y2="23.5833">
		<stop  offset="0.4176" style="stop-color:#F49807"/>
		<stop  offset="1" style="stop-color:#EE7116"/>
	</linearGradient>
	<path class="st0" d="M18.06,17c-0.36,0-0.71,0-1.06,0C16.35,17,15.69,17,15.04,17c-1.1,0-2.21,0-3.31,0.01
		c-0.67,0-1.23,0.52-1.29,1.16c-0.07,0.69,0.36,1.31,1.03,1.43c0.3,0.05,0.61,0.04,0.91,0.04c1.58,0,3.16,0,4.74-0.01
		c0.3,0,0.61,0,0.92,0c0,0.89,0,1.75,0,2.64c-0.09,0-0.16,0-0.24,0c-2.02,0-4.03,0-6.05,0c-0.94,0-1.57,0.93-1.24,1.8
		c0.19,0.49,0.68,0.82,1.24,0.82c1.02,0,2.05,0,3.07,0c1.02,0,2.04,0,3.05,0c0.1,0,0.19-0.01,0.2,0.14
		c0.05,0.81,0.18,1.61,0.43,2.39c0.01,0.02,0.01,0.05,0.01,0.09c-0.06,0.01-0.12,0.02-0.18,0.02c-1.15,0-2.3,0-3.45,0
		c-1.04,0-2.09-0.01-3.13-0.01c-0.57,0-0.99,0.28-1.22,0.8c-0.23,0.51-0.14,1,0.24,1.41c0.26,0.28,0.58,0.43,0.97,0.43
		c1.09,0,2.18,0,3.27,0c1.52,0,3.04,0,4.56,0c0.12,0,0.2,0.02,0.28,0.13c0.68,1.02,1.52,1.89,2.5,2.63
		c1.24,0.93,2.49,1.85,3.75,2.77c0.85,0.62,1.72,1.22,2.59,1.83c0.17,0.12,0.35,0.22,0.53,0.31c0.11,0.05,0.13,0.1,0.09,0.21
		c-0.12,0.36-0.49,0.66-0.88,0.66c-1.39,0-2.78,0-4.16,0c-1.19,0-2.38,0-3.57,0c-3.15,0-6.31,0-9.46,0c-0.86,0-1.72,0-2.58,0
		c-0.6,0-1-0.41-1-1.01c0-2.16-0.01-4.32-0.01-6.48c0-1.88,0.01-3.75,0.01-5.63c0-1.04-0.01-2.07-0.01-3.11
		c0-2.13,0.01-4.26,0.01-6.38c0-1.82,0-3.65,0-5.47c0-0.37-0.01-0.74-0.01-1.11C7.7,8.87,8.09,8.48,8.71,8.48c1.23,0,2.46,0,3.69,0
		c1.58,0,3.16,0,4.74,0c2.58,0,5.17,0,7.75,0c1.17,0,2.34,0,3.51,0.01c0.59,0,0.97,0.42,1,1.01c0.02,0.33-0.11,0.45-0.38,0.59
		c-1.29,0.7-2.55,1.44-3.83,2.17c-2.09,1.18-4.17,2.36-6.26,3.54C18.45,16.05,18.15,16.44,18.06,17z M15.97,14.37
		C15.97,14.37,15.97,14.37,15.97,14.37c1.41,0.01,2.81,0.01,4.22,0.01c0.75,0,1.35-0.57,1.35-1.3c0.01-0.74-0.57-1.34-1.32-1.35
		c-0.94-0.01-1.88,0-2.81,0c-1.29,0-2.59,0-3.88,0c-0.59,0-1.19-0.01-1.78,0.01c-0.77,0.02-1.33,0.62-1.31,1.36
		c0.02,0.73,0.6,1.27,1.37,1.27C13.19,14.37,14.58,14.37,15.97,14.37z M15.75,32.8c-0.07,0-0.13,0-0.2,0c-1.26,0-2.51-0.01-3.77,0
		c-0.75,0-1.35,0.61-1.35,1.34c0,0.73,0.6,1.3,1.37,1.3c1.33,0,2.66,0,3.98,0c1.31,0,2.62,0.01,3.92,0c0.37,0,0.71-0.11,0.97-0.37
		c0.42-0.41,0.52-0.94,0.3-1.45c-0.24-0.54-0.67-0.81-1.25-0.82c-0.75-0.01-1.49,0-2.24,0C16.91,32.8,16.33,32.8,15.75,32.8z"/>
	<linearGradient id="SVGID_2_" gradientUnits="userSpaceOnUse" x1="22.5179" y1="23.8886" x2="40.2394" y2="23.8886">
		<stop  offset="0" style="stop-color:#ED6D09"/>
		<stop  offset="1" style="stop-color:#E41E17"/>
	</linearGradient>
	<path class="st1" d="M40.22,21.49c0,1.05,0.04,2.1-0.01,3.14c-0.1,2.17-0.95,4.02-2.56,5.48c-0.69,0.63-1.45,1.18-2.21,1.73
		c-1.31,0.95-2.63,1.88-3.94,2.82c-0.1,0.07-0.17,0.07-0.27,0c-1.56-1.12-3.13-2.23-4.68-3.37c-0.74-0.54-1.49-1.09-2.1-1.8
		c-1.11-1.3-1.77-2.79-1.9-4.5c-0.04-0.49-0.04-0.99-0.04-1.49c0-1.77,0-3.54-0.01-5.31c0-0.11,0.04-0.17,0.13-0.22
		c1.61-0.91,3.22-1.83,4.84-2.74c1.25-0.71,2.51-1.42,3.76-2.13c0.1-0.06,0.16-0.05,0.26,0c1.22,0.7,2.44,1.39,3.66,2.08
		c1.47,0.84,2.95,1.67,4.42,2.51c0.17,0.09,0.33,0.19,0.5,0.28c0.1,0.05,0.14,0.11,0.14,0.23C40.22,19.3,40.23,20.39,40.22,21.49
		C40.22,21.49,40.22,21.49,40.22,21.49z M31.42,31.46c4.44-0.08,7.6-3.69,7.51-7.71c-0.09-4.29-3.67-7.57-7.82-7.41
		c-4.23,0.16-7.5,3.69-7.3,7.9C24.02,28.42,27.44,31.46,31.42,31.46z"/>
	<linearGradient id="SVGID_3_" gradientUnits="userSpaceOnUse" x1="25.9954" y1="24.2954" x2="36.736" y2="24.2954">
		<stop  offset="0" style="stop-color:#ED6D09"/>
		<stop  offset="1" style="stop-color:#E41E17"/>
	</linearGradient>
	<path class="st2" d="M29.97,24.83c0.69-0.69,1.36-1.36,2.03-2.03c0.84-0.84,1.68-1.68,2.52-2.52c0.32-0.31,0.79-0.29,1.1,0.02
		c0.28,0.28,0.55,0.57,0.84,0.83c0.36,0.33,0.35,0.87,0,1.21c-1.05,1.03-2.08,2.07-3.12,3.11c-0.94,0.94-1.87,1.87-2.81,2.81
		c-0.35,0.35-0.8,0.36-1.15,0.01c-0.95-0.94-1.89-1.89-2.83-2.83c-0.11-0.11-0.22-0.21-0.32-0.32c-0.32-0.33-0.32-0.79,0.01-1.12
		c0.28-0.28,0.56-0.56,0.83-0.84c0.41-0.4,0.83-0.4,1.24,0.01c0.5,0.51,1.01,1.02,1.51,1.52C29.87,24.75,29.91,24.78,29.97,24.83z"
		/>
</g>
</svg>
